HIERARCHY
ROOT Hips
{
	OFFSET 0.000000 0.000000 0.000000
	CHANNELS 6 Xposition Yposition Zposition Xrotation Yrotation Zrotation
	JOINT LeftUpLeg_virtual
	{
		OFFSET 0.000000 0.000000 0.000000
		CHANNELS 3 Xrotation Yrotation Zrotation
		JOINT LeftUpLeg
		{
			OFFSET 15.427100 -6.655098 0.678600
			CHANNELS 3 Xrotation Yrotation Zrotation
			JOINT LeftLeg
			{
				OFFSET 4.081073 -39.591068 13.024000
				CHANNELS 3 Xrotation Yrotation Zrotation
				JOINT LeftFoot
				{
					OFFSET -4.081074 -37.707932 -15.979700
					CHANNELS 3 Xrotation Yrotation Zrotation
					JOINT LeftToeBase
					{
						OFFSET 5.346399 -15.068900 20.645000
						CHANNELS 3 Xrotation Yrotation Zrotation
						JOINT LeftToe_End
						{
							OFFSET 2.754700 0.931300 11.300900
							CHANNELS 3 Xrotation Yrotation Zrotation
							End Site
							{
								OFFSET 0 0 0
							}
						}
					}
				}
			}
		}
	}
	JOINT RightUpLeg_virtual
	{
		OFFSET 0.000000 0.000000 0.000000
		CHANNELS 3 Xrotation Yrotation Zrotation
		JOINT RightUpLeg
		{
			OFFSET -15.569500 -6.655098 0.678600
			CHANNELS 3 Xrotation Yrotation Zrotation
			JOINT RightLeg
			{
				OFFSET -4.081825 -39.591045 13.023800
				CHANNELS 3 Xrotation Yrotation Zrotation
				JOINT RightFoot
				{
					OFFSET 4.081824 -37.707954 -15.979600
					CHANNELS 3 Xrotation Yrotation Zrotation
					JOINT RightToeBase
					{
						OFFSET -5.346400 -15.068900 20.645000
						CHANNELS 3 Xrotation Yrotation Zrotation
						JOINT RightToe_End
						{
							OFFSET -2.754700 0.931300 11.300900
							CHANNELS 3 Xrotation Yrotation Zrotation
							End Site
							{
								OFFSET 0 0 0
							}
						}
					}
				}
			}
		}
	}
	JOINT Spine_virtual
	{
		OFFSET 0.000000 0.000000 0.000000
		CHANNELS 3 Xrotation Yrotation Zrotation
		JOINT Spine
		{
			OFFSET -0.279200 12.230698 -2.892100
			CHANNELS 3 Xrotation Yrotation Zrotation
			JOINT Spine1
			{
				OFFSET -0.232667 10.192268 -1.242267
				CHANNELS 3 Xrotation Yrotation Zrotation
				JOINT Spine1_split
				{
					OFFSET -0.232667 10.192268 -1.242267
					CHANNELS 3 Xrotation Yrotation Zrotation
					JOINT Spine2
					{
						OFFSET -0.232667 10.192268 -1.242267
						CHANNELS 3 Xrotation Yrotation Zrotation
						JOINT Neck_virtual
						{
							OFFSET 0.000000 0.000000 0.000000
							CHANNELS 3 Xrotation Yrotation Zrotation
							JOINT Neck
							{
								OFFSET -0.418800 17.814194 8.416900
								CHANNELS 3 Xrotation Yrotation Zrotation
								JOINT Head
								{
									OFFSET 0.000000 7.031097 3.806800
									CHANNELS 3 Xrotation Yrotation Zrotation
									JOINT HeadTop_End
									{
										OFFSET 0.000000 24.646606 12.978600
										CHANNELS 3 Xrotation Yrotation Zrotation
										End Site
										{
											OFFSET 0 0 0
										}
									}
								}
							}
						}
						JOINT LeftShoulder_virtual
						{
							OFFSET 0.000000 0.000000 0.000000
							CHANNELS 3 Xrotation Yrotation Zrotation
							JOINT LeftShoulder
							{
								OFFSET 8.476499 7.247704 -3.868750
								CHANNELS 3 Xrotation Yrotation Zrotation
								JOINT LeftShoulder_split
								{
									OFFSET 8.476499 7.247704 -3.868750
									CHANNELS 3 Xrotation Yrotation Zrotation
									JOINT LeftArm
									{
										OFFSET 9.308998 -2.777710 0.208600
										CHANNELS 3 Xrotation Yrotation Zrotation
										JOINT LeftForeArm
										{
											OFFSET 29.972298 0.000000 0.000000
											CHANNELS 3 Xrotation Yrotation Zrotation
											JOINT LeftHand
											{
												OFFSET 26.026505 0.000000 0.000000
												CHANNELS 3 Xrotation Yrotation Zrotation
												End Site
												{
													OFFSET 0 0 0
												}
											}
										}
									}
								}
							}
						}
						JOINT RightShoulder_virtual
						{
							OFFSET 0.000000 0.000000 0.000000
							CHANNELS 3 Xrotation Yrotation Zrotation
							JOINT RightShoulder
							{
								OFFSET -7.570500 7.247704 -3.868750
								CHANNELS 3 Xrotation Yrotation Zrotation
								JOINT RightShoulder_split
								{
									OFFSET -7.570500 7.247704 -3.868750
									CHANNELS 3 Xrotation Yrotation Zrotation
									JOINT RightArm
									{
										OFFSET -9.308998 -2.777710 0.208500
										CHANNELS 3 Xrotation Yrotation Zrotation
										JOINT RightForeArm
										{
											OFFSET -29.972300 0.000000 0.000000
											CHANNELS 3 Xrotation Yrotation Zrotation
											JOINT RightHand
											{
												OFFSET -26.026505 0.000000 0.000000
												CHANNELS 3 Xrotation Yrotation Zrotation
												End Site
												{
													OFFSET 0 0 0
												}
											}
										}
									}
								}
							}
						}
					}
				}
			}
		}
	}
}
MOTION
Frames: 11
Frame Time: 0.03333333
3.687137 46.966461 -3.758724 0.000000 0.000000 0.000000 178.656930 -8.526280 171.083726 -66.194444 -30.767779 34.292423 106.801155 -20.408120 -7.877968 -29.596040 2.934270 -10.353477 -18.481157 -0.626015 0.500048 0.000000 0.000000 0.000000 178.704783 -6.367168 171.342180 -31.839415 5.804722 -36.158943 91.369565 18.769186 5.194191 -44.506715 -10.527982 19.454356 -3.764673 -1.025098 1.120982 0.000000 0.000000 0.000000 179.104239 -7.322561 170.317898 7.622210 4.485529 -2.618105 7.523896 7.157797 -3.797967 0.574891 -2.993036 0.689269 0.000000 0.000000 0.000000 7.706323 6.646994 -3.649224 -4.603753 23.461809 7.476101 6.562546 33.093288 -23.931122 0.000000 0.000000 0.000000 8.340405 7.006121 -3.891906 1.069007 -13.577817 -10.505362 -3.322271 -1.602875 -3.841249 2.757683 2.153456 -31.888565 36.258711 -40.499030 0.914920 0.000000 0.000000 0.000000 7.882024 6.922824 -4.258048 5.281341 -18.254085 13.580372 2.176824 3.318254 -1.868170 12.653085 -13.109060 61.136771 34.531568 49.244103 -8.765956 0.000000 0.000000 0.000000 
3.683049 46.971649 -3.769932 0.000000 0.000000 0.000000 178.613682 -8.563374 171.075939 -66.258538 -30.770221 34.272817 106.782030 -20.415225 -7.880375 -29.575259 2.925033 -10.336155 -18.413567 -0.624236 0.494508 0.000000 0.000000 0.000000 178.659949 -6.396595 171.340158 -31.867573 5.754951 -36.185543 91.378225 18.784279 5.191299 -44.523654 -10.511759 19.438247 -3.762728 -1.025303 1.122745 0.000000 0.000000 0.000000 179.058942 -7.348846 170.307803 7.595448 4.487106 -2.611063 7.485045 7.153688 -3.801306 0.572462 -2.994794 0.689335 0.000000 0.000000 0.000000 7.662735 6.642980 -3.651190 -4.659541 23.469587 7.466484 6.674066 33.081051 -23.932445 0.000000 0.000000 0.000000 8.307825 7.002165 -3.896659 1.068364 -13.614020 -10.506501 -3.301418 -1.598040 -3.835728 2.819085 2.193324 -31.841905 36.239508 -40.591773 0.898994 0.000000 0.000000 0.000000 7.847553 6.920788 -4.263711 5.286677 -18.286746 13.529906 2.174162 3.318861 -1.876420 12.658002 -13.104101 61.232079 34.542415 49.164873 -8.784990 0.000000 0.000000 0.000000 
3.680471 46.977032 -3.780949 0.000000 0.000000 0.000000 178.576443 -8.606259 171.064028 -66.310796 -30.794734 34.252142 106.760365 -20.425995 -7.886880 -29.544048 2.915785 -10.311644 -18.349286 -0.620559 0.481992 0.000000 0.000000 0.000000 178.621509 -6.429414 171.337112 -31.874731 5.703031 -36.211361 91.374954 18.799116 5.193614 -44.545814 -10.498987 19.422954 -3.744486 -1.025535 1.125150 0.000000 0.000000 0.000000 179.018507 -7.380994 170.294156 7.566150 4.492056 -2.601521 7.452839 7.153391 -3.804666 0.567061 -2.999421 0.691502 0.000000 0.000000 0.000000 7.626605 6.642271 -3.655188 -4.682200 23.479281 7.455124 6.774553 33.077336 -23.949401 0.000000 0.000000 0.000000 8.282620 7.000932 -3.902450 1.067640 -13.659132 -10.508130 -3.279720 -1.586657 -3.825423 2.878669 2.256114 -31.784504 36.219885 -40.708047 0.890413 0.000000 0.000000 0.000000 7.818862 6.921762 -4.270288 5.290822 -18.324827 13.481247 2.168702 3.320329 -1.886987 12.657125 -13.095431 61.333384 34.543965 49.073676 -8.796070 0.000000 0.000000 0.000000 
3.680000 46.977615 -3.789211 0.000000 0.000000 0.000000 178.546992 -8.654258 171.049370 -66.363026 -30.849461 34.233038 106.744915 -20.444785 -7.890118 -29.485332 2.900390 -10.288797 -18.305129 -0.615435 0.464337 0.000000 0.000000 0.000000 178.591374 -6.467919 171.332768 -31.855719 5.644653 -36.234693 91.360071 18.811280 5.203289 -44.575293 -10.492635 19.407605 -3.714039 -1.025224 1.128441 0.000000 0.000000 0.000000 178.984315 -7.420309 170.276507 7.539293 4.500413 -2.589515 7.429024 7.157649 -3.805764 0.560331 -2.995937 0.689641 0.000000 0.000000 0.000000 7.598425 6.645857 -3.658642 -4.666980 23.488913 7.435971 6.862103 33.081564 -23.984360 0.000000 0.000000 0.000000 8.266150 7.003107 -3.906677 1.067143 -13.715616 -10.510209 -3.261466 -1.566438 -3.814111 2.933807 2.346732 -31.720201 36.199955 -40.844900 0.889649 0.000000 0.000000 0.000000 7.797560 6.926657 -4.275110 5.295111 -18.362385 13.433775 2.165522 3.326246 -1.903331 12.661397 -13.080506 61.441124 34.531323 48.959950 -8.795280 0.000000 0.000000 0.000000 
3.682202 46.968033 -3.793953 0.000000 0.000000 0.000000 178.525299 -8.710379 171.033879 -66.430106 -30.934480 34.212595 106.741179 -20.473125 -7.887255 -29.397271 2.877284 -10.272203 -18.267947 -0.608219 0.438689 0.000000 0.000000 0.000000 178.570132 -6.513577 171.325815 -31.810841 5.580488 -36.254333 91.342968 18.820742 5.218224 -44.614000 -10.493990 19.392558 -3.682113 -1.023733 1.131759 0.000000 0.000000 0.000000 178.958565 -7.467939 170.256590 7.520434 4.511141 -2.576328 7.416472 7.167031 -3.802062 0.549499 -2.990237 0.688069 0.000000 0.000000 0.000000 7.579484 6.654246 -3.658907 -4.612215 23.497695 7.403882 6.938151 33.094029 -24.041622 0.000000 0.000000 0.000000 8.259943 7.008726 -3.906136 1.066999 -13.783842 -10.514533 -3.250501 -1.539877 -3.800706 2.979619 2.463183 -31.652855 36.180902 -41.007916 0.899942 0.000000 0.000000 0.000000 7.785482 6.935732 -4.275190 5.300012 -18.397348 13.383733 2.166155 3.333607 -1.926436 12.673473 -13.057904 61.558029 34.503507 48.825956 -8.785014 0.000000 0.000000 0.000000 
3.686225 46.945099 -3.794594 0.000000 0.000000 0.000000 178.511365 -8.776054 171.019303 -66.522354 -31.043350 34.185493 106.749628 -20.508838 -7.878818 -29.289460 2.848749 -10.264117 -18.214651 -0.598390 0.404265 0.000000 0.000000 0.000000 178.556991 -6.567835 171.317537 -31.741767 5.516252 -36.269329 91.334703 18.828065 5.234344 -44.663703 -10.504546 19.382248 -3.662141 -1.021384 1.134371 0.000000 0.000000 0.000000 178.942541 -7.522726 170.235170 7.513597 4.523375 -2.563602 7.418274 7.181187 -3.792227 0.541923 -2.979864 0.682570 0.000000 0.000000 0.000000 7.573026 6.666815 -3.654322 -4.519936 23.505275 7.354991 7.009202 33.116135 -24.126422 0.000000 0.000000 0.000000 8.266277 7.017768 -3.898832 1.067272 -13.861852 -10.521292 -3.245824 -1.512312 -3.787235 3.007359 2.596742 -31.583737 36.163393 -41.205527 0.924048 0.000000 0.000000 0.000000 7.785126 6.948788 -4.268669 5.306043 -18.431172 13.327656 2.166129 3.337741 -1.957086 12.688580 -13.032939 61.681929 34.463103 48.684321 -8.771927 0.000000 0.000000 0.000000 
3.690303 46.909420 -3.793030 0.000000 0.000000 0.000000 178.503729 -8.852511 171.006777 -66.640100 -31.164917 34.145762 106.763145 -20.548631 -7.865716 -29.179360 2.819678 -10.266811 -18.135692 -0.588059 0.369627 0.000000 0.000000 0.000000 178.550161 -6.629324 171.307428 -31.653839 5.461907 -36.278659 91.343508 18.834127 5.246819 -44.726698 -10.525583 19.380576 -3.659460 -1.019473 1.135296 0.000000 0.000000 0.000000 178.935848 -7.585560 170.214366 7.519987 4.536110 -2.553019 7.435350 7.198815 -3.776627 0.535299 -2.962468 0.677358 0.000000 0.000000 0.000000 7.582412 6.683019 -3.644933 -4.392945 23.512308 7.292031 7.083319 33.151023 -24.244817 0.000000 0.000000 0.000000 8.286680 7.029459 -3.884630 1.067881 -13.944678 -10.530981 -3.242989 -1.486814 -3.770753 3.005971 2.733012 -31.516173 36.140512 -41.431518 0.957325 0.000000 0.000000 0.000000 7.797730 6.965059 -4.255464 5.313085 -18.469038 13.262169 2.160914 3.333970 -1.994888 12.695149 -13.003618 61.810931 34.414649 48.546307 -8.762901 0.000000 0.000000 0.000000 
3.694049 46.866005 -3.791302 0.000000 0.000000 0.000000 178.501380 -8.937735 170.995248 -66.768487 -31.284370 34.090085 106.772912 -20.587683 -7.852632 -29.086760 2.795250 -10.277070 -18.033014 -0.580191 0.343322 0.000000 0.000000 0.000000 178.548262 -6.696677 171.297647 -31.550485 5.426263 -36.282948 91.370746 18.839304 5.252345 -44.802681 -10.554904 19.388293 -3.669397 -1.018516 1.134195 0.000000 0.000000 0.000000 178.937911 -7.653043 170.196170 7.536917 4.548463 -2.546324 7.467545 7.218945 -3.757877 0.535251 -2.949113 0.674359 0.000000 0.000000 0.000000 7.609310 6.702109 -3.633358 -4.240579 23.518131 7.223704 7.168269 33.200026 -24.398827 0.000000 0.000000 0.000000 8.322177 7.043219 -3.865689 1.069211 -14.027949 -10.542543 -3.241455 -1.462320 -3.753256 2.968465 2.855929 -31.450511 36.103308 -41.659687 0.989240 0.000000 0.000000 0.000000 7.823469 6.983697 -4.237940 5.321002 -18.517568 13.187818 2.151498 3.330178 -2.034363 12.685456 -12.962592 61.944072 34.358549 48.409543 -8.757482 0.000000 0.000000 0.000000 
3.696191 46.822906 -3.789806 0.000000 0.000000 0.000000 178.503797 -9.025459 170.983718 -66.889163 -31.393015 34.018925 106.774032 -20.620855 -7.840114 -29.015306 2.777024 -10.290881 -17.929339 -0.576990 0.334298 0.000000 0.000000 0.000000 178.550557 -6.768075 171.288058 -31.433852 5.414609 -36.282330 91.403784 18.842076 5.251667 -44.885749 -10.591130 19.408462 -3.688757 -1.019191 1.131540 0.000000 0.000000 0.000000 178.946243 -7.724503 170.182400 7.560440 4.559866 -2.544578 7.512227 7.240164 -3.739752 0.540358 -2.935903 0.673637 0.000000 0.000000 0.000000 7.651743 6.722964 -3.622584 -4.074561 23.521669 7.163112 7.268945 33.263383 -24.585795 0.000000 0.000000 0.000000 8.371411 7.058192 -3.846313 1.071623 -14.103203 -10.555468 -3.237575 -1.439639 -3.732880 2.898382 2.948568 -31.391952 36.040511 -41.852886 1.007333 0.000000 0.000000 0.000000 7.861966 7.003726 -4.220161 5.330599 -18.583698 13.107587 2.140417 3.335318 -2.069225 12.657753 -12.894934 62.078633 34.291296 48.257868 -8.748102 0.000000 0.000000 0.000000 
3.697633 46.788296 -3.787872 0.000000 0.000000 0.000000 178.511174 -9.110841 170.971683 -66.985871 -31.484358 33.938554 106.766833 -20.644332 -7.829479 -28.958718 2.764439 -10.301700 -17.847008 -0.579322 0.344711 0.000000 0.000000 0.000000 178.557264 -6.839897 171.278591 -31.308057 5.425803 -36.277515 91.427949 18.841282 5.247441 -44.968272 -10.631256 19.439579 -3.706225 -1.021492 1.128546 0.000000 0.000000 0.000000 178.959945 -7.796384 170.174081 7.586137 4.569722 -2.547652 7.565667 7.261452 -3.725373 0.545147 -2.924131 0.674092 0.000000 0.000000 0.000000 7.705016 6.745082 -3.615821 -3.906024 23.519519 7.124764 7.385364 33.338259 -24.796168 0.000000 0.000000 0.000000 8.431787 7.073679 -3.830103 1.075390 -14.161133 -10.569121 -3.230787 -1.416332 -3.709993 2.807945 2.993172 -31.348430 35.949611 -41.976440 1.003612 0.000000 0.000000 0.000000 7.910700 7.023984 -4.206078 5.341896 -18.671861 13.026422 2.131787 3.354692 -2.095397 12.610390 -12.787542 62.211173 34.207749 48.072067 -8.724185 0.000000 0.000000 0.000000 
3.699476 46.768570 -3.783501 0.000000 0.000000 0.000000 178.524425 -9.187337 170.958542 -67.050458 -31.560241 33.854604 106.759306 -20.652533 -7.820392 -28.906248 2.758445 -10.301049 -17.780876 -0.582894 0.359485 0.000000 0.000000 0.000000 178.569340 -6.910267 171.268469 -31.174626 5.451996 -36.267007 91.427942 18.835116 5.244565 -45.041324 -10.670437 19.476517 -3.710460 -1.024512 1.126743 0.000000 0.000000 0.000000 178.979056 -7.864538 170.170120 7.611630 4.577620 -2.554721 7.624227 7.281952 -3.716651 0.550980 -2.915418 0.676384 0.000000 0.000000 0.000000 7.762870 6.766998 -3.614605 -3.749483 23.509742 7.119408 7.513910 33.421208 -25.016295 0.000000 0.000000 0.000000 8.498685 7.088836 -3.819424 1.080323 -14.191650 -10.582496 -3.215897 -1.399499 -3.688297 2.714897 2.987453 -31.325491 35.841421 -42.021161 0.985951 0.000000 0.000000 0.000000 7.966071 7.043225 -4.198510 5.354750 -18.784436 12.948601 2.128386 3.387982 -2.110579 12.543339 -12.637421 62.335400 34.106994 47.846353 -8.680017 0.000000 0.000000 0.000000 
